<svg width="117" height="28" viewBox="0 0 117 28" fill="none" xmlns="http://www.w3.org/2000/svg">
<path d="M46.771 15.5654C46.771 16.4318 46.6456 17.2147 46.3947 17.9129C46.1439 18.6112 45.7916 19.212 45.339 19.7153C44.8852 20.2187 44.3454 20.6064 43.7172 20.8784C43.09 21.1504 42.4062 21.2864 41.6667 21.2864C40.9273 21.2864 40.2445 21.1504 39.6163 20.8784C38.9892 20.6053 38.4482 20.2176 37.9956 19.7153C37.5419 19.212 37.1907 18.6112 36.9388 17.9129C36.6879 17.2147 36.5625 16.4318 36.5625 15.5654C36.5625 14.7129 36.6879 13.9343 36.9388 13.2286C37.1896 12.5228 37.5419 11.9188 37.9956 11.4154C38.4482 10.9121 38.9892 10.5244 39.6163 10.2524C40.2434 9.97927 40.9273 9.84326 41.6667 9.84326C42.4062 9.84326 43.0889 9.97927 43.7172 10.2524C44.3443 10.5244 44.8852 10.9121 45.339 11.4154C45.7916 11.9188 46.1439 12.5228 46.3947 13.2286C46.6456 13.9332 46.771 14.7129 46.771 15.5654ZM44.7424 15.5654C44.7424 14.3359 44.4664 13.3614 43.9157 12.6417C43.3649 11.922 42.6156 11.5621 41.6667 11.5621C40.7179 11.5621 39.9686 11.922 39.4178 12.6417C38.867 13.3614 38.5911 14.3359 38.5911 15.5654C38.5911 16.7948 38.866 17.7694 39.4178 18.4891C39.9686 19.2088 40.7179 19.5686 41.6667 19.5686C42.6145 19.5686 43.3649 19.2088 43.9157 18.4891C44.4664 17.7694 44.7424 16.7948 44.7424 15.5654Z" fill="#040000"/>
<path d="M57.9624 20.6997C57.5164 20.8122 56.9274 20.93 56.1945 21.0564C55.4627 21.1827 54.6152 21.2449 53.6533 21.2449C52.8168 21.2449 52.1122 21.1228 51.5407 20.8786C50.9692 20.6344 50.5089 20.2885 50.1599 19.8408C49.8109 19.3942 49.5601 18.8663 49.4074 18.259C49.2536 17.6507 49.1772 16.9771 49.1772 16.236V10.1155H51.123V15.8162C51.123 17.1442 51.3324 18.0941 51.7501 18.6671C52.1689 19.24 52.8724 19.527 53.8627 19.527C54.0721 19.527 54.288 19.5195 54.5105 19.5056C54.733 19.4917 54.9424 19.4746 55.1377 19.4531C55.3329 19.4317 55.5107 19.4114 55.671 19.39C55.8313 19.3696 55.9458 19.345 56.0167 19.3171V10.1155H57.9624V20.6997V20.6997Z" fill="#040000"/>
<path d="M65.1172 9.88525C65.2841 9.88525 65.476 9.89596 65.692 9.91738C65.9079 9.93773 66.1206 9.96665 66.33 10.0009C66.5394 10.0363 66.7303 10.0705 66.9048 10.1059C67.0793 10.1412 67.208 10.1723 67.292 10.2001L66.9571 11.8976C66.8034 11.8419 66.5492 11.7755 66.1937 11.6984C65.8381 11.6223 65.3811 11.5838 64.8238 11.5838C64.4606 11.5838 64.1018 11.6223 63.7463 11.6984C63.3907 11.7755 63.1573 11.828 63.0461 11.8558V21.0157H61.1003V10.5782C61.5606 10.4111 62.1321 10.2537 62.8159 10.1069C63.4987 9.95808 64.2665 9.88525 65.1172 9.88525Z" fill="#040000"/>
<path d="M70.785 10.1153H74.9054V11.7496H70.785V16.7799C70.785 17.325 70.8264 17.7748 70.9104 18.1314C70.9944 18.488 71.1198 18.7676 71.2867 18.97C71.4546 19.1724 71.6629 19.3159 71.9138 19.3994C72.1646 19.483 72.458 19.5258 72.7928 19.5258C73.3785 19.5258 73.8486 19.4594 74.2052 19.3266C74.5608 19.1938 74.8084 19.0996 74.948 19.0439L75.3242 20.6578C75.129 20.7563 74.7876 20.8784 74.299 21.0251C73.8104 21.1719 73.2531 21.2447 72.626 21.2447C71.8865 21.2447 71.2768 21.1504 70.7959 20.962C70.3149 20.7735 69.9277 20.4907 69.6354 20.1127C69.3431 19.7357 69.137 19.2709 69.0181 18.7194C68.8992 18.1678 68.8403 17.5285 68.8403 16.8013V7.07593L70.786 6.74072V10.1153H70.785Z" fill="#040000"/>
<path d="M85.8247 20.6997C85.3787 20.8122 84.7897 20.93 84.0568 21.0564C83.325 21.1827 82.4775 21.2449 81.5156 21.2449C80.679 21.2449 79.9745 21.1228 79.403 20.8786C78.8315 20.6344 78.3712 20.2885 78.0222 19.8408C77.6732 19.3942 77.4224 18.8663 77.2697 18.259C77.1159 17.6507 77.0396 16.9771 77.0396 16.236V10.1155H78.9853V15.8162C78.9853 17.1442 79.1947 18.0941 79.6124 18.6671C80.0312 19.24 80.7347 19.527 81.725 19.527C81.9344 19.527 82.1503 19.5195 82.3728 19.5056C82.5953 19.4917 82.8047 19.4746 83 19.4531C83.1952 19.4317 83.373 19.4114 83.5333 19.39C83.6936 19.3696 83.8081 19.345 83.879 19.3171V10.1155H85.8247V20.6997V20.6997Z" fill="#040000"/>
<path d="M90.9074 10.5974C91.1441 10.4432 91.504 10.2826 91.985 10.1155C92.4659 9.94735 93.02 9.86382 93.6482 9.86382C94.4291 9.86382 95.1227 10.003 95.7291 10.2826C96.3355 10.5621 96.8482 10.953 97.267 11.4563C97.6858 11.9597 98.0021 12.5605 98.2191 13.2588C98.435 13.9581 98.543 14.726 98.543 15.5645C98.543 16.4448 98.4143 17.2374 98.1558 17.9431C97.8974 18.6489 97.532 19.2465 97.0576 19.7348C96.5831 20.2243 96.0116 20.6012 95.342 20.8668C94.6723 21.1324 93.9198 21.2652 93.0832 21.2652C92.1769 21.2652 91.3753 21.202 90.6773 21.0767C89.9803 20.9504 89.4077 20.8251 88.9617 20.6998V5.08521L90.9074 4.75V10.5974V10.5974ZM90.9074 19.3172C91.1026 19.3728 91.3775 19.4253 91.7341 19.4746C92.0896 19.5238 92.5325 19.5474 93.0625 19.5474C94.1084 19.5474 94.945 19.2015 95.5732 18.5097C96.2003 17.8178 96.5144 16.8368 96.5144 15.5645C96.5144 15.0055 96.4588 14.4818 96.3465 13.9924C96.2352 13.504 96.0542 13.081 95.8022 12.7243C95.5514 12.3677 95.2274 12.0893 94.8294 11.8858C94.4324 11.6834 93.9536 11.5816 93.3962 11.5816C92.8662 11.5816 92.3776 11.6727 91.9315 11.8537C91.4854 12.0357 91.143 12.2242 90.9063 12.4191V19.3172H90.9074Z" fill="#040000"/>
<path d="M100.467 15.5857C100.467 14.6219 100.607 13.7801 100.886 13.0604C101.165 12.3407 101.534 11.7442 101.994 11.2687C102.454 10.7943 102.984 10.4376 103.584 10.1999C104.184 9.96214 104.798 9.84326 105.425 9.84326C106.889 9.84326 108.012 10.3016 108.793 11.2162C109.574 12.1319 109.964 13.5252 109.964 15.3972C109.964 15.4808 109.964 15.59 109.964 15.7228C109.964 15.8556 109.957 15.9777 109.944 16.0891H102.497C102.581 17.2211 102.908 18.08 103.479 18.6669C104.051 19.2538 104.944 19.5472 106.157 19.5472C106.84 19.5472 107.416 19.4883 107.882 19.3694C108.349 19.2505 108.701 19.136 108.939 19.0235L109.211 20.6578C108.973 20.7842 108.559 20.917 107.966 21.0562C107.373 21.1954 106.701 21.2661 105.948 21.2661C104.999 21.2661 104.18 21.1226 103.489 20.8366C102.799 20.5507 102.231 20.1555 101.785 19.6522C101.338 19.1488 101.007 18.5523 100.791 17.8604C100.575 17.1686 100.467 16.4104 100.467 15.5857ZM107.935 14.5169C107.949 13.6366 107.729 12.9137 107.276 12.3482C106.822 11.7817 106.198 11.499 105.403 11.499C104.957 11.499 104.564 11.5868 104.221 11.7613C103.88 11.9359 103.59 12.163 103.353 12.4425C103.115 12.722 102.931 13.0433 102.799 13.4063C102.666 13.7705 102.58 14.1399 102.537 14.5169H107.935Z" fill="#040000"/>
<path fill-rule="evenodd" clip-rule="evenodd" d="M26.8272 7.05123C27.3711 7.60659 27.7904 8.20601 28.1159 8.81424C28.2421 9.04999 28.3531 9.28697 28.4522 9.52303L26.3204 11.9626C26.1304 12.1841 25.8026 12.24 25.5453 12.0954L24.0219 11.3744C23.724 11.2067 23.3415 11.3113 23.1789 11.605L20.6913 15.1669C20.4928 15.5251 19.987 15.5856 19.7042 15.2851L17.0757 13.3194C16.7932 13.0196 16.2886 13.0791 16.0895 13.4358L13.5991 17.896C13.4456 18.171 13.0735 18.2472 12.8174 18.0561L10.88 16.61C10.6422 16.4326 10.299 16.4842 10.1282 16.723L8.45064 19.0572C8.44331 19.043 8.43594 19.0289 8.42857 19.0147C8.40277 18.9651 8.37697 18.9154 8.3525 18.8658C7.99704 18.1412 7.76206 17.4136 7.60792 16.7285C7.30817 15.395 7.31109 14.2221 7.31277 13.5438C7.3128 13.5316 7.31283 13.5196 7.31286 13.5078C7.31538 12.3667 7.54658 9.3219 9.83346 7.0251C12.1712 4.67708 15.4051 4.43521 17.3225 4.2918L17.3236 4.29172C18.4588 4.20696 19.3371 4.27167 19.7287 4.30813C21.4208 4.46489 24.4233 4.74379 26.6526 6.87897C26.7114 6.93517 26.7696 6.99229 26.8272 7.05123ZM28.4522 9.5233C29.2156 11.3419 29.2298 13.1198 29.2358 13.9331L29.2358 13.9337C29.2446 15.1585 29.2665 18.2118 27.1326 20.5735C24.7658 23.1926 21.1237 23.4362 19.1569 23.5678L19.1562 23.5678C18.0577 23.6414 17.231 23.5776 16.9486 23.5526C16.8954 23.548 16.8397 23.5432 16.7818 23.5382C15.0292 23.3879 11.1798 23.0578 9.04921 20.0433C8.81989 19.7192 8.62329 19.3889 8.45059 19.0575L10.1282 16.7233C10.299 16.4845 10.6422 16.4329 10.88 16.6103L12.8174 18.0564C13.0731 18.2475 13.4456 18.1713 13.5991 17.8963L16.0895 13.4361C16.2889 13.0794 16.7935 13.0199 17.0756 13.3197L19.7041 15.2854C19.9872 15.5858 20.4928 15.5254 20.6912 15.1672L23.1788 11.6053C23.3414 11.3115 23.724 11.207 24.0219 11.3747L25.5453 12.0957C25.8026 12.2403 26.1304 12.1844 26.3204 11.9629L28.4522 9.5233Z" fill="#026BFB"/>
<path d="M29.2485 13.9244C29.2425 13.111 29.2283 11.3328 28.4626 9.51392L26.3245 11.9539C26.134 12.1754 25.8052 12.2313 25.5472 12.0867L24.0193 11.3656C23.7205 11.1979 23.3369 11.3024 23.1738 11.5963L20.6789 15.1587C20.4798 15.517 19.9728 15.5774 19.6889 15.2769L17.0527 13.3109C16.7697 13.011 16.2637 13.0706 16.0636 13.4273L13.5659 17.8883C13.412 18.1633 13.0384 18.2396 12.7819 18.0484L10.8389 16.6021C10.6003 16.4246 10.2561 16.4763 10.0848 16.7151L8.40234 19.0496C8.57555 19.3812 8.77273 19.7115 9.00272 20.0357C11.2102 23.1502 15.2572 23.3997 16.9252 23.5456C17.2085 23.5705 18.0376 23.6343 19.1393 23.5607C21.1117 23.4292 24.7651 23.1858 27.1391 20.5659C29.2797 18.2034 29.2573 15.149 29.2485 13.9244Z" fill="white" fill-opacity="0.18"/>
<path d="M22.1281 14.1259C15.5924 19.2369 17.2542 19.7977 15.648 11.8476C15.5792 11.4702 15.9591 11.1625 16.3319 11.2937L21.9733 13.277C22.3458 13.4079 22.4319 13.8795 22.1281 14.1259Z" fill="white"/>
</svg>
