<svg width="18" height="18" viewBox="0 0 18 18" fill="none" xmlns="http://www.w3.org/2000/svg">
<path d="M10.9302 0.662233C9.7949 -0.220745 8.2051 -0.220744 7.06977 0.662234L1.21377 5.21661C0.447933 5.81222 0 6.72802 0 7.69817V14.8562C0 16.5925 1.40762 18 3.144 18H5.7C6.52843 18 7.2 17.3285 7.2 16.5001V13.3787C7.2 13.1469 7.24047 13.0191 7.28243 12.9518C7.43357 12.7095 7.63538 12.5008 7.8756 12.3406C8.20824 12.1189 8.59954 12.0004 9 12.0004C9.40046 12.0004 9.79176 12.1189 10.1244 12.3406C10.3646 12.5008 10.5664 12.7095 10.7176 12.9518C10.7595 13.0191 10.8 13.1469 10.8 13.3787V16.5001C10.8 17.3285 11.4716 18 12.3 18H14.856C16.5924 18 18 16.5925 18 14.8562V7.69817C18 6.72802 17.5521 5.81222 16.7862 5.21661L10.9302 0.662233Z" fill="#C9CCD7"/>
</svg>
