<svg width="18" height="18" viewBox="0 0 18 18" fill="none" xmlns="http://www.w3.org/2000/svg">
<path fill-rule="evenodd" clip-rule="evenodd" d="M5 0C2.23858 0 0 2.23858 0 5V13C0 15.7614 2.23858 18 5 18H13C15.7614 18 18 15.7614 18 13V5C18 2.23858 15.7614 0 13 0H5ZM14.6 6.45C14.8485 6.11863 14.7814 5.64853 14.45 5.4C14.1186 5.15147 13.6485 5.21863 13.4 5.55L10.8397 8.96379L7.93593 6.8897C7.62213 6.66556 7.1895 6.71591 6.93557 7.00612L3.43557 11.0061C3.16281 11.3178 3.19439 11.7917 3.50612 12.0644C3.81785 12.3372 4.29167 12.3056 4.56443 11.9939L7.61699 8.50524L10.5641 10.6103C10.8956 10.8471 11.3555 10.7759 11.6 10.45L14.6 6.45Z" fill="#C9CCD7"/>
</svg>
