<svg width="16" height="16" viewBox="0 0 16 16" fill="none" xmlns="http://www.w3.org/2000/svg">
<path fill-rule="evenodd" clip-rule="evenodd" d="M11.258 4.42938C11.2581 4.85793 11.1737 5.28229 11.0097 5.67823C10.8458 6.07417 10.6054 6.43395 10.3024 6.737C9.99944 7.04006 9.63972 7.28048 9.24381 7.44451C8.8479 7.60855 8.42356 7.69301 7.99501 7.69305C7.12952 7.69314 6.29945 7.34941 5.68739 6.73748C5.07533 6.12554 4.73143 5.29554 4.73135 4.43005C4.7313 4.0015 4.81567 3.57714 4.97962 3.1812C5.14358 2.78526 5.38392 2.42549 5.68692 2.12243C6.29885 1.51037 7.12886 1.16647 7.99435 1.16638C8.85984 1.16629 9.68991 1.51002 10.302 2.12195C10.914 2.73389 11.2579 3.56389 11.258 4.42938ZM7.99468 8.69138C3.29535 8.69138 1.46735 11.682 1.46735 13.0734C1.46735 14.464 5.35868 14.8347 7.99468 14.8347C10.6307 14.8347 14.522 14.464 14.522 13.0734C14.522 11.682 12.694 8.69138 7.99468 8.69138Z" fill="#969BAB"/>
</svg>
